<mxfile host="65bd71144e">
    <diagram id="XLf0YkoMVfi3GiiFKcuV" name="Page-1">
        <mxGraphModel dx="958" dy="373" grid="1" gridSize="10" guides="1" tooltips="1" connect="1" arrows="1" fold="1" page="1" pageScale="1" pageWidth="850" pageHeight="1100" math="0" shadow="0">
            <root>
                <mxCell id="0"/>
                <mxCell id="1" parent="0"/>
                <mxCell id="2" value="" style="pointerEvents=1;verticalLabelPosition=bottom;shadow=0;dashed=0;align=center;html=1;verticalAlign=top;shape=mxgraph.electrical.miscellaneous.batteryStack;rotation=-90;" parent="1" vertex="1">
                    <mxGeometry x="50" y="355" width="100" height="60" as="geometry"/>
                </mxCell>
                <mxCell id="7" style="edgeStyle=none;shape=connector;rounded=0;html=1;labelBackgroundColor=default;strokeColor=default;fontFamily=Helvetica;fontSize=11;fontColor=default;endArrow=none;endFill=0;startArrow=none;exitX=0;exitY=0.5;exitDx=0;exitDy=0;entryX=0;entryY=0.5;entryDx=0;entryDy=0;" parent="1" source="46" target="2" edge="1">
                    <mxGeometry relative="1" as="geometry">
                        <mxPoint x="170" y="400" as="sourcePoint"/>
                        <mxPoint x="100" y="480" as="targetPoint"/>
                        <Array as="points">
                            <mxPoint x="100" y="479"/>
                        </Array>
                    </mxGeometry>
                </mxCell>
                <mxCell id="8" value="+" style="text;html=1;align=center;verticalAlign=middle;resizable=0;points=[];autosize=1;strokeColor=none;fillColor=none;fontSize=11;fontFamily=Helvetica;fontColor=default;" parent="1" vertex="1">
                    <mxGeometry x="40" y="335" width="30" height="30" as="geometry"/>
                </mxCell>
                <mxCell id="9" value="-" style="text;html=1;align=center;verticalAlign=middle;resizable=0;points=[];autosize=1;strokeColor=none;fillColor=none;fontSize=11;fontFamily=Helvetica;fontColor=default;" parent="1" vertex="1">
                    <mxGeometry x="40" y="405" width="30" height="30" as="geometry"/>
                </mxCell>
                <mxCell id="10" value="5 V" style="text;html=1;align=center;verticalAlign=middle;resizable=0;points=[];autosize=1;strokeColor=none;fillColor=none;fontSize=11;fontFamily=Helvetica;fontColor=default;" parent="1" vertex="1">
                    <mxGeometry x="30" y="370" width="40" height="30" as="geometry"/>
                </mxCell>
                <mxCell id="13" value="&lt;div&gt;Created by: Mikey Gloriani&lt;/div&gt;&lt;div&gt;Created on: Nov 2023&lt;/div&gt;&lt;div&gt;TEJ3M-Unit-4-11&lt;/div&gt;&lt;div&gt;&lt;div&gt;This lights up a single LED&amp;nbsp;&lt;span style=&quot;background-color: initial;&quot;&gt;with an AND gate&lt;/span&gt;&lt;/div&gt;&lt;/div&gt;" style="text;html=1;align=left;verticalAlign=middle;resizable=0;points=[];autosize=1;strokeColor=none;fillColor=none;fontSize=11;fontFamily=Helvetica;fontColor=default;" parent="1" vertex="1">
                    <mxGeometry x="70" y="140" width="240" height="70" as="geometry"/>
                </mxCell>
                <mxCell id="50" style="edgeStyle=none;shape=connector;rounded=0;html=1;exitX=0.5;exitY=1;exitDx=0;exitDy=0;entryX=0.5;entryY=0;entryDx=0;entryDy=0;labelBackgroundColor=default;strokeColor=default;fontFamily=Helvetica;fontSize=11;fontColor=default;endArrow=none;endFill=0;startArrow=none;" parent="1" source="137" target="46" edge="1">
                    <mxGeometry relative="1" as="geometry"/>
                </mxCell>
                <mxCell id="85" style="edgeStyle=none;shape=connector;rounded=0;html=1;exitX=0;exitY=0.5;exitDx=0;exitDy=0;entryX=0;entryY=0.75;entryDx=0;entryDy=0;entryPerimeter=0;labelBackgroundColor=default;strokeColor=default;fontFamily=Helvetica;fontSize=11;fontColor=default;endArrow=none;endFill=0;" parent="1" source="14" edge="1" target="130">
                    <mxGeometry relative="1" as="geometry">
                        <mxPoint x="290" y="335" as="targetPoint"/>
                        <Array as="points">
                            <mxPoint x="470" y="335"/>
                        </Array>
                    </mxGeometry>
                </mxCell>
                <mxCell id="14" value="" style="shape=mxgraph.electrical.electro-mechanical.twoWaySwitch;aspect=fixed;elSwitchState=2;rotation=-180;" parent="1" vertex="1">
                    <mxGeometry x="190" y="322" width="75" height="26" as="geometry"/>
                </mxCell>
                <mxCell id="24" value="&lt;div&gt;A | B |Output&lt;/div&gt;&lt;div&gt;--------------&lt;/div&gt;&lt;div&gt;0 | 0 | 0&lt;/div&gt;&lt;div&gt;0 | 1 | 0&lt;/div&gt;&lt;div&gt;1 | 0 | 0&lt;/div&gt;&lt;div&gt;1 | 1 | 1&lt;/div&gt;" style="text;html=1;strokeColor=none;fillColor=none;align=left;verticalAlign=middle;whiteSpace=wrap;rounded=0;" parent="1" vertex="1">
                    <mxGeometry x="335" y="170" width="125" height="30" as="geometry"/>
                </mxCell>
                <mxCell id="26" value="B" style="text;html=1;align=center;verticalAlign=middle;resizable=0;points=[];autosize=1;strokeColor=none;fillColor=none;fontSize=11;fontFamily=Helvetica;fontColor=default;" parent="1" vertex="1">
                    <mxGeometry x="212.5" y="305" width="30" height="30" as="geometry"/>
                </mxCell>
                <mxCell id="80" style="edgeStyle=none;shape=connector;rounded=0;html=1;exitX=1;exitY=0.5;exitDx=0;exitDy=0;entryX=1;entryY=0.57;entryDx=0;entryDy=0;entryPerimeter=0;labelBackgroundColor=default;strokeColor=default;fontFamily=Helvetica;fontSize=11;fontColor=default;endArrow=none;endFill=0;" parent="1" source="46" target="79" edge="1">
                    <mxGeometry relative="1" as="geometry"/>
                </mxCell>
                <mxCell id="46" value="" style="ellipse;whiteSpace=wrap;html=1;aspect=fixed;strokeColor=#000000;fillColor=#000000;" parent="1" vertex="1">
                    <mxGeometry x="186" y="474" width="10" height="10" as="geometry"/>
                </mxCell>
                <mxCell id="65" value="220&amp;nbsp;Î©" style="text;html=1;align=center;verticalAlign=middle;resizable=0;points=[];autosize=1;strokeColor=none;fillColor=none;fontSize=11;fontFamily=Helvetica;fontColor=default;" parent="1" vertex="1">
                    <mxGeometry x="334" y="489" width="50" height="30" as="geometry"/>
                </mxCell>
                <mxCell id="79" value="" style="verticalLabelPosition=bottom;shadow=0;dashed=0;align=center;html=1;verticalAlign=top;shape=mxgraph.electrical.opto_electronics.led_2;pointerEvents=1;fontFamily=Helvetica;fontSize=11;fontColor=default;rotation=-180;" parent="1" vertex="1">
                    <mxGeometry x="210" y="449" width="100" height="70" as="geometry"/>
                </mxCell>
                <mxCell id="82" style="edgeStyle=none;shape=connector;rounded=0;html=1;exitX=1;exitY=0.5;exitDx=0;exitDy=0;exitPerimeter=0;labelBackgroundColor=default;strokeColor=default;fontFamily=Helvetica;fontSize=11;fontColor=default;endArrow=none;endFill=0;" parent="1" edge="1">
                    <mxGeometry relative="1" as="geometry">
                        <mxPoint x="490" y="480" as="targetPoint"/>
                        <mxPoint x="408" y="479" as="sourcePoint"/>
                    </mxGeometry>
                </mxCell>
                <mxCell id="81" value="" style="pointerEvents=1;verticalLabelPosition=bottom;shadow=0;dashed=0;align=center;html=1;verticalAlign=top;shape=mxgraph.electrical.resistors.resistor_2;rotation=0;" parent="1" vertex="1">
                    <mxGeometry x="310" y="469" width="98" height="20" as="geometry"/>
                </mxCell>
                <mxCell id="87" value="" style="edgeStyle=none;html=1;exitX=1;exitY=0.5;exitDx=0;exitDy=0;endArrow=none;endFill=0;" parent="1" source="2" target="86" edge="1">
                    <mxGeometry relative="1" as="geometry">
                        <mxPoint x="100" y="270" as="targetPoint"/>
                        <mxPoint x="100" y="300" as="sourcePoint"/>
                    </mxGeometry>
                </mxCell>
                <mxCell id="88" value="" style="edgeStyle=none;shape=connector;rounded=0;html=1;exitX=1;exitY=0.88;exitDx=0;exitDy=0;labelBackgroundColor=default;strokeColor=default;fontFamily=Helvetica;fontSize=11;fontColor=default;endArrow=none;endFill=0;entryX=1;entryY=0.5;entryDx=0;entryDy=0;" parent="1" source="14" target="86" edge="1">
                    <mxGeometry relative="1" as="geometry">
                        <mxPoint x="100" y="270" as="targetPoint"/>
                        <mxPoint x="190" y="270.12000000000006" as="sourcePoint"/>
                    </mxGeometry>
                </mxCell>
                <mxCell id="132" style="edgeStyle=none;shape=connector;rounded=0;html=1;exitX=0.5;exitY=0;exitDx=0;exitDy=0;labelBackgroundColor=default;strokeColor=default;fontFamily=Helvetica;fontSize=11;fontColor=default;endArrow=none;endFill=0;" edge="1" parent="1">
                    <mxGeometry relative="1" as="geometry">
                        <mxPoint x="100" y="232" as="targetPoint"/>
                        <mxPoint x="100" y="322" as="sourcePoint"/>
                    </mxGeometry>
                </mxCell>
                <mxCell id="86" value="" style="ellipse;whiteSpace=wrap;html=1;aspect=fixed;strokeColor=#000000;fillColor=#000000;" parent="1" vertex="1">
                    <mxGeometry x="95" y="320" width="10" height="10" as="geometry"/>
                </mxCell>
                <mxCell id="89" value="Output" style="text;html=1;align=center;verticalAlign=middle;resizable=0;points=[];autosize=1;strokeColor=none;fillColor=none;fontSize=11;fontFamily=Helvetica;fontColor=default;" parent="1" vertex="1">
                    <mxGeometry x="230" y="510" width="60" height="30" as="geometry"/>
                </mxCell>
                <mxCell id="131" style="edgeStyle=none;shape=connector;rounded=0;html=1;exitX=1;exitY=0.5;exitDx=0;exitDy=0;exitPerimeter=0;labelBackgroundColor=default;strokeColor=default;fontFamily=Helvetica;fontSize=11;fontColor=default;endArrow=none;endFill=0;" edge="1" parent="1" source="130">
                    <mxGeometry relative="1" as="geometry">
                        <mxPoint x="490" y="480" as="targetPoint"/>
                    </mxGeometry>
                </mxCell>
                <mxCell id="140" style="edgeStyle=none;shape=connector;rounded=0;html=1;exitX=0;exitY=0.25;exitDx=0;exitDy=0;exitPerimeter=0;entryX=0;entryY=0.5;entryDx=0;entryDy=0;labelBackgroundColor=default;strokeColor=default;fontFamily=Helvetica;fontSize=11;fontColor=default;endArrow=none;endFill=0;" edge="1" parent="1" source="130" target="133">
                    <mxGeometry relative="1" as="geometry">
                        <Array as="points">
                            <mxPoint x="510" y="240"/>
                        </Array>
                    </mxGeometry>
                </mxCell>
                <mxCell id="130" value="" style="shape=or;whiteSpace=wrap;html=1;fontFamily=Helvetica;fontSize=11;fontColor=default;rotation=90;" vertex="1" parent="1">
                    <mxGeometry x="460" y="360" width="60" height="80" as="geometry"/>
                </mxCell>
                <mxCell id="134" style="edgeStyle=none;shape=connector;rounded=0;html=1;exitX=1;exitY=0.88;exitDx=0;exitDy=0;labelBackgroundColor=default;strokeColor=default;fontFamily=Helvetica;fontSize=11;fontColor=default;endArrow=none;endFill=0;" edge="1" parent="1" source="133">
                    <mxGeometry relative="1" as="geometry">
                        <mxPoint x="100" y="233" as="targetPoint"/>
                    </mxGeometry>
                </mxCell>
                <mxCell id="136" style="edgeStyle=none;shape=connector;rounded=0;html=1;exitX=1;exitY=0.12;exitDx=0;exitDy=0;labelBackgroundColor=default;strokeColor=default;fontFamily=Helvetica;fontSize=11;fontColor=default;endArrow=none;endFill=0;" edge="1" parent="1" source="133">
                    <mxGeometry relative="1" as="geometry">
                        <mxPoint x="190" y="440" as="targetPoint"/>
                        <Array as="points">
                            <mxPoint x="150" y="440"/>
                        </Array>
                    </mxGeometry>
                </mxCell>
                <mxCell id="133" value="" style="shape=mxgraph.electrical.electro-mechanical.twoWaySwitch;aspect=fixed;elSwitchState=2;rotation=-180;" vertex="1" parent="1">
                    <mxGeometry x="150" y="230" width="75" height="26" as="geometry"/>
                </mxCell>
                <mxCell id="135" value="A" style="text;html=1;align=center;verticalAlign=middle;resizable=0;points=[];autosize=1;strokeColor=none;fillColor=none;fontSize=11;fontFamily=Helvetica;fontColor=default;" vertex="1" parent="1">
                    <mxGeometry x="175" y="210" width="30" height="30" as="geometry"/>
                </mxCell>
                <mxCell id="138" value="" style="edgeStyle=none;shape=connector;rounded=0;html=1;exitX=1;exitY=0.12;exitDx=0;exitDy=0;entryX=0.5;entryY=0;entryDx=0;entryDy=0;labelBackgroundColor=default;strokeColor=default;fontFamily=Helvetica;fontSize=11;fontColor=default;endArrow=none;endFill=0;" edge="1" parent="1" source="14" target="137">
                    <mxGeometry relative="1" as="geometry">
                        <mxPoint x="190" y="344.88" as="sourcePoint"/>
                        <mxPoint x="191" y="474" as="targetPoint"/>
                    </mxGeometry>
                </mxCell>
                <mxCell id="137" value="" style="ellipse;whiteSpace=wrap;html=1;aspect=fixed;strokeColor=#000000;fillColor=#000000;" vertex="1" parent="1">
                    <mxGeometry x="186" y="435" width="10" height="10" as="geometry"/>
                </mxCell>
            </root>
        </mxGraphModel>
    </diagram>
</mxfile>